<svg id="Calque_1" data-name="Calque 1" xmlns="http://www.w3.org/2000/svg" xmlns:xlink="http://www.w3.org/1999/xlink" viewBox="0 0 1080 912"><defs><style>.cls-1,.cls-11{fill:none;}.cls-2{opacity:0.53;}.cls-3{clip-path:url(#clip-path);}.cls-4{fill:#b512a5;}.cls-5{fill:#fff;}.cls-6{opacity:0.08;}.cls-7{clip-path:url(#clip-path-2);}.cls-8{clip-path:url(#clip-path-3);}.cls-9{fill:#09afea;}.cls-10{fill:#fc97fc;}.cls-11{stroke:#000;stroke-linecap:round;stroke-linejoin:round;stroke-width:6px;}</style><clipPath id="clip-path"><rect id="SVGID" class="cls-1" x="124.97" y="47.68" width="836.08" height="829.64"/></clipPath><clipPath id="clip-path-2"><rect id="SVGID-2" data-name="SVGID" class="cls-1" x="124.57" y="47.71" width="836.08" height="829.64"/></clipPath><clipPath id="clip-path-3"><path id="SVGID-3" data-name="SVGID" class="cls-1" d="M206.82,75.62h76.25c25.42,0,42.7,14.23,42.7,46.76V783.18c0,29.48-13.22,48.8-40.66,48.8H206.82ZM260.7,784.19h4.07c5.08,0,7.12-4.07,7.12-11.18V132.55c0-7.12-2-10.17-7.12-10.17H260.7ZM399,653.05H382.69L378.62,832H332.87L358.29,75.62h71.16L454.87,832H402Zm-7.12-439.17L383.7,602.22h14.23Zm76.25-87.43h-24.4V75.62H545.35v50.83h-24.4V832H468.08ZM609.38,832H555.5V75.62h53.88ZM680.53,75.62l20.33,475.77-2-475.77h42.7V832H687.65L662.23,297.24l1,534.73H621.57V75.62ZM791.33,834c-24.4,0-37.61-22.36-37.61-50.83V126.45c0-29.48,12.2-52.86,55.91-52.86h6.1c43.71,0,54.9,23.38,54.9,52.86v247H817.76v-242c0-6.1-2-9.15-5.08-9.15s-5.08,3.05-5.08,9.15V775q0,9.15,6.1,9.15c5.08,0,7.12-3,7.12-9.15V439.56h-8.13V394.83h59V832H835a142.48,142.48,0,0,0-6.1-28.47c-7.12,13.22-17.28,30.5-36.6,30.5Z"/></clipPath></defs><title>img_intro</title><g class="cls-2"><g class="cls-3"><path class="cls-4" d="M960.82,256.24c-.6-6.7.26-13.46-.86-20.13l-1.63-10.91a77.8,77.8,0,0,0-2.54-12.54h0l-2.45-9.24A55.27,55.27,0,0,0,950,192.5a67.11,67.11,0,0,0-5-12.59A51.34,51.34,0,0,0,940,169a59,59,0,0,0-6.54-11.79c-.7-4.81-4.08-8.07-6.76-11.73h0a53.51,53.51,0,0,0-8.34-10.94A76.13,76.13,0,0,0,907.21,122h0c-10.4-11.62-22.74-21-35.37-29.93-14.07-9.93-29.5-17.55-45.32-24.38C806.41,59,785.27,54.08,763.75,50.93c-7.19-1.05-14.68-.8-22.11-.58-26.92.79-51.94,8.51-75.89,20-25.1,12-46,29.92-65.91,49h0c-4.18,3.95-8.35,7.91-11.67,12.65h0a61.22,61.22,0,0,0-9.23,10.9,74,74,0,0,0-9.17,11.79A65.11,65.11,0,0,0,562,165.5h0a86.4,86.4,0,0,0-7.9,11.91h0c-2.44,3.55-5.31,6.83-7.05,10.84-1.79.56-.37,4.93-4,3.36l-4.4-7.5c-1.17-3.51-3.43-6.37-5.52-9.33h0a68.58,68.58,0,0,0-7.8-11.68,69.52,69.52,0,0,0-7.79-10.88,73.21,73.21,0,0,0-8.78-11.07h0a90,90,0,0,0-10.45-12.38,73.2,73.2,0,0,0-10.55-11.06h0A223.11,223.11,0,0,0,430.5,71.82c-32-18.13-66.44-26.46-103.31-23.59-8.17.64-16.43,1.12-24.42,2.76C271,57.51,242.4,71.56,215.19,88.6a159.92,159.92,0,0,0-33,27.54,75.71,75.71,0,0,0-10.07,10.93h0l-9.57,11.6h0a52.49,52.49,0,0,0-7.33,11h0A53.11,53.11,0,0,0,149,160.49h0a63.56,63.56,0,0,0-5.62,11.86,41.7,41.7,0,0,0-4.09,10.06l-2.44,6.74-2.55,8.39-2.45,9.24-2.56,12.53a53.66,53.66,0,0,0-1.68,10.92A156.2,156.2,0,0,0,126,252a8.89,8.89,0,0,1,.18-1.68c-.06.52-.11,1-.18,1.68-.08,3.58.32,7.26-.34,10.73a48.24,48.24,0,0,0,.1,16.27v.06a90.81,90.81,0,0,0,1.74,19.16,164.93,164.93,0,0,0,4.24,26.86c.82,8.17,3.2,16,5.67,23.74,2.18,7.77,2.8,15.94,5.88,23.49a219.68,219.68,0,0,0,10.16,29.26,208.57,208.57,0,0,0,10.94,26.79l10,23.59a221.76,221.76,0,0,0,11.84,23.33,271.41,271.41,0,0,0,15.84,28c5.63,9.42,10.64,19.21,16.9,28.25a228.65,228.65,0,0,0,16.72,23.71,220.86,220.86,0,0,0,21.79,26.91,207.73,207.73,0,0,0,21.79,26.95c6.4,8.05,13.35,15.62,20.27,23.22l20.07,22.83c5.28,6.41,11.09,12.33,16.86,18.29,5.93,6.66,12,13.19,18.46,19.33,1,1.16,2,2.33,3,3.46,4.57,5,9.76,9.5,13.8,15,7.23,7.82,14.65,15.44,22.4,22.76,8.12,9,16.8,17.43,25.47,25.89,8.74,9.22,17.09,18.82,26.73,27.15l29.51,29.09c7.82,7.26,14.44,15.73,22.7,22.55l16.75,16.07,23.64,22.56c9-6.47,16.48-14.31,24.15-21.93,6-4.83,11.37-10.37,16.79-15.85,8.14-7.25,15.89-14.9,23.53-22.67a1.83,1.83,0,0,0,1.82-.69c9.27-9.11,18.85-17.91,27.71-27.45,9.67-8.63,18.66-17.93,27.52-27.37,9.61-7.14,17.39-16.15,25.51-24.81,1.13-1,2.32-2,3.37-3.08q9.52-9.91,19-19.88L726,696.16c7-5.75,11.93-13.41,18.45-19.6a152,152,0,0,0,16.79-18.25c7.35-6.95,14.12-14.44,21-21.87,7.4-7.76,14.52-15.77,21.2-24.17a318.12,318.12,0,0,0,22.47-27c8.23-7.61,14.6-16.74,21.07-25.79a208.38,208.38,0,0,0,16.71-23.72c6.48-8.76,11.83-18.25,17.77-27.36A237.52,237.52,0,0,0,897.2,480.1,155.31,155.31,0,0,0,909,457c4.46-7.89,7.91-16.25,11.67-24.47a221.84,221.84,0,0,0,10.88-26.85c4-8.84,6.61-18.18,9.43-27.44,4.32-7,5.56-15,7.44-22.85,3.2-7.84,4.24-16.19,5.82-24.41a161.89,161.89,0,0,0,4.25-26.85,85.36,85.36,0,0,0,1.71-18.33,10.51,10.51,0,0,0,.38-3.9c.79-8.54.32-17.11.21-25.68"/></g></g><path class="cls-5" d="M207.22,75.59h76.24c25.42,0,42.7,14.23,42.7,46.76V783.14c0,29.48-13.22,48.8-40.67,48.8H207.22ZM261.1,784.16h4.07c5.08,0,7.12-4.07,7.12-11.18V132.52c0-7.12-2-10.17-7.12-10.17H261.1Z"/><path class="cls-5" d="M399.36,653H383.09L379,831.94H333.28L358.69,75.59h71.16l25.42,756.35H402.41Zm-7.12-439.17-8.13,388.34h14.23Z"/><polygon class="cls-5" points="468.49 126.42 444.09 126.42 444.09 75.59 545.75 75.59 545.75 126.42 521.35 126.42 521.35 831.94 468.49 831.94 468.49 126.42"/><rect class="cls-5" x="555.9" y="75.59" width="53.88" height="756.35"/><polygon class="cls-5" points="680.93 75.59 701.26 551.36 699.23 75.59 741.93 75.59 741.93 831.94 688.05 831.94 662.63 297.21 663.65 831.94 621.97 831.94 621.97 75.59 680.93 75.59"/><path class="cls-5" d="M791.73,834c-24.4,0-37.61-22.36-37.61-50.83V126.42c0-29.48,12.2-52.86,55.91-52.86h6.1c43.71,0,54.9,23.38,54.9,52.86v247H818.16v-242c0-6.1-2-9.15-5.08-9.15S808,125.4,808,131.5V775q0,9.15,6.1,9.15c5.08,0,7.12-3,7.12-9.15V439.53h-8.13V394.8h59V831.94h-36.6a142.45,142.45,0,0,0-6.1-28.47c-7.12,13.22-17.28,30.5-36.6,30.5Z"/><g class="cls-6"><g class="cls-7"><g class="cls-8"><path class="cls-4" d="M960.41,256.27c-.6-6.7.26-13.46-.86-20.13l-1.63-10.91a77.69,77.69,0,0,0-2.54-12.54h0l-2.45-9.24a55.27,55.27,0,0,0-3.37-10.91,67,67,0,0,0-5-12.59,51.34,51.34,0,0,0-5-10.93A59.06,59.06,0,0,0,933,157.22h0c-.7-4.81-4.08-8.07-6.76-11.73h0a53.47,53.47,0,0,0-8.34-10.94A76.13,76.13,0,0,0,906.81,122h0c-10.4-11.62-22.74-21-35.37-29.93-14.07-9.93-29.5-17.55-45.32-24.38C806,59,784.87,54.11,763.34,51c-7.19-1.05-14.68-.8-22.11-.58-26.92.79-51.94,8.51-75.89,20-25.1,12-46,29.92-65.91,49h0c-4.18,3.95-8.35,7.91-11.67,12.65a61.3,61.3,0,0,0-9.23,10.9,74,74,0,0,0-9.17,11.79,65.11,65.11,0,0,0-7.73,10.8h0a86.4,86.4,0,0,0-7.9,11.91h0c-2.44,3.55-5.31,6.83-7.05,10.84-1.79.56-.37,4.93-4,3.36l-4.41-7.5c-1.17-3.51-3.43-6.37-5.52-9.33h0a68.58,68.58,0,0,0-7.8-11.68,69.44,69.44,0,0,0-7.79-10.88,73.21,73.21,0,0,0-8.79-11.07h0A90,90,0,0,0,498,128.8a73.2,73.2,0,0,0-10.55-11.06h0A223.11,223.11,0,0,0,430.1,71.85c-32-18.13-66.44-26.46-103.31-23.59-8.17.64-16.43,1.12-24.42,2.76-31.73,6.51-60.37,20.56-87.58,37.6a160,160,0,0,0-33,27.54,75.77,75.77,0,0,0-10.07,10.93h0l-9.57,11.6h0a52.49,52.49,0,0,0-7.33,11h0a53.16,53.16,0,0,0-6.17,10.79h0A63.53,63.53,0,0,0,143,172.38a41.7,41.7,0,0,0-4.1,10.06l-2.44,6.74-2.55,8.39-2.45,9.24-2.56,12.53a53.6,53.6,0,0,0-1.68,10.92,156.06,156.06,0,0,0-1.68,21.82,8.81,8.81,0,0,1,.17-1.68c-.06.52-.11,1-.17,1.68-.08,3.58.32,7.26-.34,10.73a48.24,48.24,0,0,0,.1,16.27v.06a90.81,90.81,0,0,0,1.74,19.16,164.82,164.82,0,0,0,4.24,26.86c.82,8.17,3.21,16,5.68,23.74,2.18,7.77,2.8,15.94,5.88,23.49A219.54,219.54,0,0,0,153,401.64,208.43,208.43,0,0,0,164,428.43L174,452a222.13,222.13,0,0,0,11.84,23.33,271.41,271.41,0,0,0,15.84,28c5.63,9.42,10.64,19.21,16.91,28.25a228.48,228.48,0,0,0,16.71,23.71,220.86,220.86,0,0,0,21.79,26.91,207.73,207.73,0,0,0,21.79,26.95c6.4,8.05,13.35,15.62,20.27,23.22l20.07,22.83c5.28,6.41,11.09,12.33,16.86,18.29,5.93,6.66,12,13.19,18.46,19.33,1,1.16,2,2.33,3,3.46,4.57,5,9.76,9.5,13.8,15,7.23,7.82,14.65,15.44,22.4,22.76,8.12,9,16.8,17.43,25.47,25.89,8.74,9.22,17.09,18.82,26.73,27.15l29.51,29.09c7.82,7.26,14.44,15.73,22.71,22.55l16.75,16.07,23.64,22.56c9-6.47,16.48-14.31,24.15-21.93,6-4.83,11.37-10.37,16.79-15.85,8.14-7.25,15.89-14.9,23.53-22.67a1.83,1.83,0,0,0,1.82-.69c9.27-9.11,18.86-17.91,27.71-27.45,9.67-8.63,18.66-17.93,27.52-27.37,9.61-7.14,17.39-16.15,25.51-24.81,1.13-1,2.32-2,3.37-3.08q9.52-9.91,19-19.88l17.67-17.42c7-5.75,11.93-13.41,18.45-19.6a152.06,152.06,0,0,0,16.79-18.25c7.35-6.95,14.12-14.44,21-21.87,7.4-7.76,14.52-15.77,21.2-24.17a317.93,317.93,0,0,0,22.47-27c8.23-7.61,14.6-16.74,21.07-25.79a208.11,208.11,0,0,0,16.71-23.72C869.7,527,875.05,517.52,881,508.4a237.52,237.52,0,0,0,15.81-28.27,155.31,155.31,0,0,0,11.84-23.08c4.46-7.89,7.92-16.25,11.67-24.47a221.68,221.68,0,0,0,10.88-26.85c4-8.84,6.61-18.18,9.42-27.44,4.32-7,5.56-15,7.44-22.85,3.2-7.84,4.24-16.19,5.82-24.41a162,162,0,0,0,4.25-26.85,85.48,85.48,0,0,0,1.7-18.33,10.53,10.53,0,0,0,.38-3.9c.79-8.54.33-17.11.21-25.68"/></g></g></g><path class="cls-9" d="M492.25,492.9,953.64,491c14.7-.09,26.71,12.64,26.81,28.43l.84,94.83c.1,15.8-11.74,28.68-26.44,28.77l-413.11,1.56C527,644.73,515,632,514.93,616.2l-.83-92.85s-.94-24.54-21.85-30.44"/><path class="cls-5" d="M556.52,511.68c14.14,0,19.62,6.24,19.62,19.62v18.55H559.56V533.58c0-3.8-.76-6.69-4.87-6.69s-5,2.59-5,7.91v2.13c0,6.39,1.22,9.89,7,17.34l11,14.14c7.76,10,10.19,15.67,10.19,28.59v3.65c0,16.58-7,26.46-22.21,26.46h-3.35c-13.84,0-21-7.45-21-21.44V583h17v19.77c0,5.32,1.82,7.91,5.63,7.91,4.11,0,5.63-2.59,5.63-9.73v-2.59c0-8.21-.76-10.8-7-19l-11-14c-7.3-9.43-9.43-16.73-9.43-28v-3.65c0-15.21,7.6-22.05,21.14-22.05Z"/><rect class="cls-5" x="583.28" y="512.74" width="17.19" height="113.15"/><polygon class="cls-5" points="607.46 512.74 629.51 512.74 637.73 572.51 646.09 512.74 666.62 512.74 666.62 625.89 650.5 625.89 650.5 552.74 640.16 625.89 633.32 625.89 622.82 552.74 622.82 625.89 607.46 625.89 607.46 512.74"/><path class="cls-5" d="M673.31,512.74H690.8v89.58c0,4.87,1.67,8.06,5.47,8.06,4.11,0,5.63-3,5.63-8.06V512.74H719.4v88.51c0,16-6.39,26-21.6,26h-3c-15.21,0-21.44-9.58-21.44-26Z"/><polygon class="cls-5" points="743.27 512.74 743.27 608.4 764.26 608.4 764.26 625.89 726.09 625.89 726.09 512.74 743.27 512.74"/><path class="cls-5" d="M797.41,604.6H784.79l-2.13,21.29H767.3l13.84-113.15h20.38l14.75,113.15H799.69Zm-10.8-16.88h9L791,545.9Z"/><polygon class="cls-5" points="856.27 512.74 856.27 529.17 841.82 529.17 841.82 625.89 824.79 625.89 824.79 529.17 810.34 529.17 810.34 512.74 856.27 512.74"/><path class="cls-5" d="M906.91,600.65c0,15.82-5.32,26.61-21.9,26.61h-2.89c-16.42,0-22.2-10.8-22.2-26.61v-63c0-15.82,5.78-26,22.05-26h2.89c16.73,0,22.05,10.34,22.05,25.86Zm-17.49-63.88q0-8.67-5.93-8.67c-4.41,0-6.08,2.74-6.08,8.67v65.09c0,4.87,1.37,8.67,6.24,8.67,4.71,0,5.78-3.8,5.78-8.67Z"/><path class="cls-5" d="M930.64,625.89H913.45V512.74h27.83c11.56,0,17.18,4.71,17.18,17.49v20.08c0,9.43-4.41,13.23-7.45,14.45,3.8,1.67,7.45,4.56,7.45,12.32v39.69a17.24,17.24,0,0,0,1.67,8.36v.76h-17c-.76-1.22-1.67-3.19-1.67-9.28V582.55c0-5-.91-7.15-6.39-7.15h-4.41Zm0-66.61h4.56c4.72,0,6.24-3,6.24-8.06V535.4c0-4.87-.91-7.3-6.24-7.3h-4.56Z"/><path class="cls-5" d="M170.38,796.49a97.29,97.29,0,1,1,97.29-97.29,97.4,97.4,0,0,1-97.29,97.29"/><path class="cls-9" d="M170.38,610.41A88.79,88.79,0,1,1,81.59,699.2a88.79,88.79,0,0,1,88.79-88.79m0-17A105.79,105.79,0,1,0,276.17,699.2,105.91,105.91,0,0,0,170.38,593.41"/><path d="M123.38,680.95a19.73,19.73,0,1,0-7.32-11l19.13-4.82Z"/><path d="M206.63,681.71a19.73,19.73,0,1,0-7.32-11l19.13-4.82Z"/><path class="cls-10" d="M121.71,719.67a16.83,16.83,0,1,1-16.83-16.83,16.83,16.83,0,0,1,16.83,16.83"/><line class="cls-11" x1="104.88" y1="724.43" x2="99.46" y2="733.95"/><line class="cls-11" x1="114.44" y1="724.43" x2="109.02" y2="733.95"/><line class="cls-11" x1="123.99" y1="724.43" x2="118.58" y2="733.95"/><path class="cls-10" d="M253.71,719.67a16.83,16.83,0,1,1-16.83-16.83,16.83,16.83,0,0,1,16.83,16.83"/><path d="M129.7,646.68c13.71,0,24.82,13.9,24.82,31s-11.11,31-24.82,31-24.82-13.9-24.82-31,11.11-31,24.82-31m0-6c-17,0-30.82,16.62-30.82,37s13.83,37,30.82,37,30.82-16.61,30.82-37-13.83-37-30.82-37"/><line class="cls-11" x1="108.21" y1="693.23" x2="151.2" y2="693.23"/><path class="cls-11" d="M151.59,730.64s17.53,18.71,37,0"/><path d="M211.85,647.44c13.71,0,24.82,13.9,24.82,31s-11.11,31-24.82,31-24.82-13.9-24.82-31,11.11-31,24.82-31m0-6c-17,0-30.82,16.62-30.82,37s13.83,37,30.82,37,30.82-16.61,30.82-37-13.83-37-30.82-37"/><line class="cls-11" x1="190.35" y1="693.99" x2="233.35" y2="693.99"/><line class="cls-11" x1="227.02" y1="719.67" x2="221.6" y2="729.19"/><line class="cls-11" x1="236.57" y1="719.67" x2="231.16" y2="729.19"/><line class="cls-11" x1="246.13" y1="719.67" x2="240.71" y2="729.19"/><path class="cls-5" d="M928.14,330.27a91,91,0,1,1,91-91,91.11,91.11,0,0,1-91,91"/><path class="cls-10" d="M928.14,156.76a82.51,82.51,0,1,1-82.5,82.51,82.51,82.51,0,0,1,82.5-82.51m0-17a99.51,99.51,0,1,0,99.5,99.51,99.62,99.62,0,0,0-99.5-99.51"/><path d="M973.68,246.46a18.33,18.33,0,1,1,6.8-10.2l-17.78-4.48Z"/><path d="M896.31,247.17a18.33,18.33,0,1,1,6.8-10.2l-17.78-4.48Z"/><path d="M965.94,190.46c12.74,0,23.07,12.91,23.07,28.84s-10.33,28.84-23.07,28.84-23.07-12.91-23.07-28.84,10.33-28.84,23.07-28.84m0-6c-16,0-29.07,15.63-29.07,34.84s13,34.84,29.07,34.84S995,238.51,995,219.3s-13-34.84-29.07-34.84"/><path class="cls-11" d="M936.44,283.35S915.65,295,903.67,273"/><path d="M889.61,191.16c12.74,0,23.07,12.91,23.07,28.84s-10.33,28.84-23.07,28.84S866.54,235.93,866.54,220s10.33-28.84,23.07-28.84m0-6c-16,0-29.07,15.63-29.07,34.84s13,34.84,29.07,34.84,29.07-15.63,29.07-34.84-13-34.84-29.07-34.84"/><polygon class="cls-5" points="987.19 222.34 945.61 222.34 954.61 205.2 983.53 209.21 987.19 222.34"/><polygon class="cls-5" points="906.69 223.15 868.01 223.84 882.82 200.84 899.55 209.56 906.69 223.15"/><line class="cls-5" x1="990.56" y1="221.64" x2="941.32" y2="221.64"/><line class="cls-11" x1="990.56" y1="221.64" x2="941.32" y2="221.64"/><line class="cls-11" x1="914.23" y1="222.34" x2="865.91" y2="222.34"/><rect id="SVGID-4" data-name="SVGID" class="cls-1" width="1080" height="912"/></svg>